<?xml version="1.0" standalone="no"?>
<!DOCTYPE svg PUBLIC "-//W3C//DTD SVG 20010904//EN"
 "http://www.w3.org/TR/2001/REC-SVG-20010904/DTD/svg10.dtd">
<svg version="1.0" xmlns="http://www.w3.org/2000/svg"
 width="229.000000pt" height="229.000000pt" viewBox="0 0 229.000000 229.000000"
 preserveAspectRatio="xMidYMid meet">
<metadata>
Created by potrace 1.11, written by Peter Selinger 2001-2013
</metadata>
<g transform="translate(0.000000,229.000000) scale(0.100000,-0.100000)"
fill="#000000" stroke="none">
<path d="M265 2162 l-220 -128 -2 -739 c-2 -407 1 -745 5 -751 9 -15 857 -504
873 -504 10 0 594 332 796 452 49 30 83 57 84 66 0 10 0 118 0 242 l0 225 97
55 c53 30 121 69 152 87 30 17 81 46 112 64 32 17 59 39 59 48 4 53 3 504 -1
511 -8 12 -440 260 -453 260 -7 0 -111 -58 -232 -128 l-220 -127 -5 -245 -5
-244 -170 -97 c-93 -54 -172 -96 -174 -93 -3 2 -5 209 -5 458 -1 250 -3 456
-6 459 -6 6 -141 87 -144 87 -2 0 -69 38 -150 85 -81 47 -153 85 -159 84 -7 0
-111 -57 -232 -127z m407 -48 c92 -53 168 -99 168 -103 0 -3 -12 -13 -28 -22
-15 -8 -91 -53 -170 -98 l-142 -82 -163 92 c-89 51 -168 97 -175 102 -9 7 34
37 155 107 93 54 172 99 177 99 5 1 85 -42 178 -95z m1270 -240 c92 -53 168
-99 168 -103 0 -3 -21 -18 -47 -32 -27 -15 -104 -59 -172 -98 l-124 -72 -169
97 c-93 53 -170 100 -172 103 -4 6 322 200 338 201 5 0 85 -43 178 -96z
m-1612 -51 l135 -78 -1 -476 c-1 -262 1 -481 5 -486 3 -5 98 -62 211 -126
l205 -116 1 -201 c0 -110 -1 -200 -3 -200 -4 0 -42 22 -345 196 -150 87 -308
178 -350 202 l-78 44 0 684 0 685 43 -25 c23 -13 103 -60 177 -103z m555 -318
c0 -276 -4 -437 -10 -443 -13 -13 -326 -192 -335 -192 -11 0 -6 868 5 879 15
15 318 190 330 191 7 0 10 -143 10 -435z m693 91 l152 -88 0 -200 0 -200 -62
35 c-35 20 -112 64 -173 99 l-110 64 -3 203 -2 204 22 -15 c13 -8 92 -54 176
-102z m576 -92 c0 -113 -4 -199 -10 -201 -5 -2 -81 -46 -169 -97 -88 -52 -163
-92 -166 -90 -4 2 -7 91 -7 197 l-1 193 172 100 c95 55 174 100 177 98 3 -1 5
-91 4 -200z m-616 -369 l153 -87 -28 -20 c-15 -11 -189 -111 -385 -222 l-356
-203 -171 96 c-94 53 -170 99 -168 103 1 5 173 107 382 227 340 196 382 218
400 207 11 -7 89 -52 173 -101z m185 -556 c-5 -4 -111 -66 -238 -139 -126 -72
-267 -154 -313 -181 -45 -27 -84 -49 -86 -49 -2 0 -30 -16 -62 -35 -32 -19
-60 -31 -63 -26 -7 10 -6 389 0 394 4 4 398 228 489 279 25 14 97 55 160 91
l115 67 3 -197 c1 -108 -1 -200 -5 -204z"/>
</g>
</svg>
